ply
format ascii 1.0
element vertex 729
property float x
property float y
property float z
element face 1453
property list uchar int vertex_indices
end_header
-2.61937 0.34688 0
-2.65258 0.37764 0.16875
-1.87766 0.41006 0.16875
-1.90272 0.37522 0.019791
-1.90301 0.37489 0
-1.8835 0.40137 0.151305
-2.84437 0.28008 0
-2.88808 0.3004 0.16875
-2.91937 0.15 0
-2.96624 0.15 0.16875
-2.87875 -0.05391 0
-2.92136 -0.07359 0.16875
-2.91783 0.14228 0
-2.74437 -0.3 0
-2.77465 -0.33003 0.16875
-2.49749 -0.546094 0
-2.50813 -0.583173 0.16875
-2.22433 -0.706605 0
-2.22425 -0.707031 0.019789
-2.21864 -0.739345 0.151412
-2.21725 -0.749806 0.16875
-2.21849 -0.740313 -0.153196
-2.22425 -0.707031 -0.019789
-2.21725 -0.749806 -0.16875
-2.50813 -0.583173 -0.16875
-2.15001 -0.2875 -0.356344
-2.1827 -0.2875 0
-2.19098 -0.75 -0.363926
-2.21722 -0.75 -0.169036
-2.21584 -0.761925 -0.184568
-2.18075 -0.970312 -0.362031
-2.2111 -0.835722 -0.224854
-2.21099 -0.840667 -0.225
-2.21098 -0.840884 -0.225
-2.21143 -0.917694 -0.183824
-2.21181 -0.928411 -0.16875
-2.21227 -0.938276 -0.150982
-2.21434 -0.966971 -0.019792
-2.2144 -0.967334 0
-2.21395 -0.970313 0
-2.19098 -0.75 0.363926
-2.21584 -0.761925 0.184568
-2.21722 -0.75 0.169036
-2.18075 -0.970312 0.362031
-2.21161 -0.820945 0.222681
-2.21099 -0.840667 0.225
-2.21089 -0.845335 0.22487
-2.2114 -0.917003 0.184677
-2.21181 -0.928411 0.16875
-2.21219 -0.936834 0.153872
-2.21434 -0.966971 0.019792
-2.08396 -0.75 0.736189
-2.07427 -0.970313 0.732355
-1.89837 -0.75 1.09442
-1.88964 -0.970313 1.08872
-1.63858 -0.75 1.41421
-1.63122 -0.970313 1.40685
-1.31879 -0.75 1.67399
-1.31309 -0.970312 1.66527
-0.960564 -0.75 1.85958
-0.95673 -0.970313 1.84989
-0.588301 -0.75 1.96661
-0.586406 -0.970312 1.95637
-0.224375 -0.75 2
-0.224375 -0.970313 1.98958
0.139551 -0.75 1.96661
0.137656 -0.970312 1.95637
0.511814 -0.75 1.85958
0.50798 -0.970313 1.84989
0.870045 -0.75 1.67399
0.864345 -0.970313 1.66527
1.18983 -0.75 1.41421
1.18247 -0.970313 1.40685
1.44962 -0.75 1.09442
1.44089 -0.970312 1.08872
1.63521 -0.75 0.736189
1.62551 -0.970313 0.732355
1.72308 -0.75 0.455468
1.72493 -0.765551 0.447439
1.73924 -0.85858 0.373486
1.74015 -0.863812 0.367591
1.74074 -0.867079 0.363655
1.73199 -0.970312 0.362031
1.74222 -0.875296 0.353755
1.7551 -0.942685 0.233048
1.75644 -0.949353 0.214338
1.7568 -0.951148 0.20889
1.76 -0.966484 0.151283
1.76083 -0.970312 0.131764
1.90301 -0.892155 0.210782
1.90942 -0.923438 0
1.76346 -0.981472 0
1.76133 -0.972477 0.118998
1.76339 -0.98124 0.019916
1.90301 -0.892155 -0.210782
1.75644 -0.949353 -0.214338
1.76344 -0.981389 -0.011935
1.76156 -0.973562 -0.111956
1.76083 -0.970313 -0.131764
1.76 -0.966484 -0.151283
1.7568 -0.951148 -0.20889
2.18969 -0.726562 0
2.15306 -0.630981 -0.335215
1.88616 -0.809683 -0.36134
2.0725 -0.4207 -0.446953
1.83501 -0.559424 -0.481787
1.99194 -0.21043 -0.335215
1.78383 -0.30916 -0.36134
1.95531 -0.11484 0
1.76058 -0.19541 0
1.77222 -0.25229 -0.18067
1.99194 -0.21043 0.335215
1.78383 -0.30916 0.36134
1.77222 -0.25229 0.18067
2.0725 -0.4207 0.446953
1.83501 -0.559424 0.481787
2.15306 -0.630981 0.335215
1.88616 -0.809683 0.36134
2.22094 -0.23804 0.397705
2.31641 -0.40471 0.298279
2.35981 -0.48047 0
2.41624 -0.15059 0.255937
2.46312 -0.20625 0
2.41624 -0.15059 -0.255937
2.31641 -0.40471 -0.298279
2.31312 -0.02812 -0.34125
2.22094 -0.23804 -0.397705
2.21001 0.09434 -0.255937
2.12546 -0.07136 -0.298279
2.46001 0.40664 -0.235547
2.33432 0.45095 -0.17666
2.58031 0.5981 -0.200713
2.42523 0.61451 -0.150535
2.7354 0.58168 -0.150535
2.58569 0.36233 -0.17666
2.98187 0.75 -0.140625
2.77562 0.75 -0.1875
3.12368 0.83071 -0.1125
2.91313 0.82266 -0.15
2.70257 0.8146 -0.1125
2.56938 0.75 -0.140625
2.86313 0.79688 -0.1125
2.69985 0.79043 -0.084375
2.78657 0.75586 -0.098437
2.66302 0.75505 -0.073828
2.77562 0.75 0
2.91009 0.75666 -0.073828
2.96624 0.75703 0
2.91009 0.75666 0.073828
3.10063 0.80625 0
3.02641 0.80332 0.084375
3.21937 0.83438 0
3.12368 0.83071 0.1125
3.07562 0.75 0
2.98187 0.75 0.140625
2.8059 0.57422 0
2.7354 0.58168 0.150535
2.77562 0.75 0.1875
2.58031 0.5981 0.200713
2.56938 0.75 0.140625
2.42523 0.61451 0.150535
2.70257 0.8146 0.1125
2.91313 0.82266 0.15
2.69985 0.79043 0.084375
2.86313 0.79688 0.1125
2.66302 0.75505 0.073828
2.78657 0.75586 0.098437
2.60687 0.75469 0
2.62562 0.7875 0
2.60687 0.81094 0
2.46001 0.40664 0.235547
2.33432 0.45095 0.17666
2.31312 -0.02812 0.34125
2.21001 0.09434 0.255937
2.12546 -0.07136 0.298279
2.47563 0.75 0
2.27718 0.47109 0
2.64281 0.34219 0
2.58569 0.36233 0.17666
3.02641 0.80332 -0.084375
2.16313 0.15 0
1.71307 -0.597525 0.489818
1.70915 -0.32764 0.365961
1.70926 -0.33888 0.378034
1.71302 -0.596393 0.489811
1.70884 -0.24311 0.223024
1.70888 -0.23953 0.213069
1.70875 -0.27709 0.295712
1.7088 -0.2875 0.312878
1.70888 -0.2986 0.329403
1.70898 -0.31046 0.345388
1.70908 -0.32064 0.357797
1.70911 -0.32309 0.360779
1.49641 0.225 0.318435
1.52562 0.225 0
1.7101 -0.20606 0
1.70126 -0.2875 0.356344
1.70898 -0.23403 0.196389
1.71009 -0.20631 0.019915
1.49641 0.225 -0.318435
1.70126 -0.2875 -0.356344
1.71009 -0.20631 -0.019915
1.70898 -0.23403 -0.196389
1.70888 -0.23953 -0.213069
1.70884 -0.24311 -0.223024
1.70875 -0.27709 -0.295712
1.7088 -0.2875 -0.312878
1.40276 0.225 -0.644166
1.59645 -0.2875 -0.720852
1.24037 0.225 -0.957617
1.41474 -0.2875 -1.07162
1.01306 0.225 -1.23744
1.16037 -0.2875 -1.38475
0.733242 0.225 -1.46474
0.847245 -0.2875 -1.63912
0.419791 0.225 -1.62713
0.496477 -0.2875 -1.82083
0.09406 0.225 -1.72078
0.131969 -0.2875 -1.92564
-0.224375 0.225 -1.75
-0.224375 -0.2875 -1.95833
-0.54281 0.225 -1.72078
-0.580719 -0.2875 -1.92564
-0.868541 0.225 -1.62713
-0.945227 -0.2875 -1.82083
-1.18199 0.225 -1.46474
-1.29599 -0.2875 -1.63912
-1.46181 0.225 -1.23744
-1.60913 -0.2875 -1.38475
-1.68912 0.225 -0.957617
-1.86349 -0.2875 -1.07162
-1.85151 0.225 -0.644166
-2.04521 -0.2875 -0.720852
-1.94516 0.225 -0.318435
-1.55514 0.85938 -0.526836
-1.63173 0.85938 -0.260435
-1.47766 0.85938 -0.496161
-1.54979 0.85938 -0.245271
-1.35258 0.85938 -0.737593
-1.42233 0.85938 -0.783194
-1.31771 0.77188 -0.714793
-1.43892 0.77188 -0.480824
-1.31246 0.775 -0.711373
-1.4331 0.775 -0.478523
-1.52437 0.775 0
-1.53062 0.77188 0
-1.48477 0.77188 -0.240412
-1.57229 0.85938 0
-1.50882 0.77188 0.237689
-1.54979 0.85938 0.245271
-1.43892 0.77188 0.480824
-1.47766 0.85938 0.496161
-1.31771 0.77188 0.714793
-1.35258 0.85938 0.737593
-1.14803 0.77188 0.923658
-1.1775 0.85938 0.953121
-0.939168 0.77188 1.09333
-0.961968 0.85938 1.1282
-0.705199 0.77188 1.21454
-0.720536 0.85938 1.25328
-0.462064 0.77188 1.28444
-0.469646 0.85938 1.32541
-0.224375 0.77188 1.30625
-0.224375 0.85938 1.34792
0.013314 0.77188 1.28444
0.020896 0.85938 1.32541
0.256449 0.77188 1.21454
0.271786 0.85938 1.25328
0.490418 0.77188 1.09333
0.513218 0.85938 1.1282
0.699283 0.77188 0.923658
0.728746 0.85938 0.953121
0.868955 0.77188 0.714793
0.903825 0.85938 0.737593
0.990165 0.77188 0.480824
1.02891 0.85938 0.496161
1.06007 0.77188 0.237689
1.10103 0.85938 0.245271
1.08187 0.77188 0
1.12354 0.85938 0
1.06007 0.77188 -0.237689
1.10103 0.85938 -0.245271
0.990165 0.77188 -0.480824
1.02891 0.85938 -0.496161
0.868955 0.77188 -0.714793
0.903825 0.85938 -0.737593
0.699283 0.77188 -0.923658
0.728746 0.85938 -0.953121
0.490418 0.77188 -1.09333
0.513218 0.85938 -1.1282
0.256449 0.77188 -1.21454
0.271786 0.85938 -1.25328
0.013314 0.77188 -1.28444
0.020896 0.85938 -1.32541
-0.224375 0.77188 -1.30625
-0.224375 0.85938 -1.34792
-0.462064 0.77188 -1.28444
-0.469646 0.85938 -1.32541
-0.705199 0.77188 -1.21454
-0.720536 0.85938 -1.25328
-0.939168 0.77188 -1.09333
-0.961968 0.85938 -1.1282
-1.14803 0.77188 -0.923658
-1.1775 0.85938 -0.953121
-0.935748 0.775 -1.08809
-1.14361 0.775 -0.919239
-0.925487 0.825 -1.0724
-1.13036 0.825 -0.905981
-0.695996 0.825 -1.19129
-0.702898 0.775 -1.20873
-0.224375 0.825 -1.28125
-0.224375 0.775 -1.3
0.247246 0.825 -1.19129
0.254148 0.775 -1.20873
0.476737 0.825 -1.0724
0.486998 0.775 -1.08809
0.681606 0.825 -0.905981
0.694864 0.775 -0.919239
0.848025 0.825 -0.701112
0.863715 0.775 -0.711373
0.966915 0.825 -0.471621
0.984355 0.775 -0.478523
1.05687 0.825 0
1.07562 0.775 0
0.966915 0.825 0.471621
0.984355 0.775 0.478523
0.848025 0.825 0.701112
0.863715 0.775 0.711373
0.681606 0.825 0.905981
0.694864 0.775 0.919239
0.476737 0.825 1.0724
0.486998 0.775 1.08809
0.247246 0.825 1.19129
0.254148 0.775 1.20873
-0.224375 0.825 1.28125
-0.224375 0.775 1.3
-0.695996 0.825 1.19129
-0.702898 0.775 1.20873
-0.925487 0.825 1.0724
-0.935748 0.775 1.08809
-1.13036 0.825 0.905981
-1.14361 0.775 0.919239
-1.29677 0.825 0.701112
-1.31246 0.775 0.711373
-1.41567 0.825 0.471621
-1.4331 0.775 0.478523
-1.50563 0.825 0
-1.37437 0.875 0
-1.29364 0.875 0.423309
-0.741042 0.925 0
-0.704766 0.925 0.190182
-0.704766 0.925 -0.190182
-1.29364 0.875 -0.423309
-0.410333 1.05 -0.073619
-0.424375 1.05 0
-0.344473 1.13125 -0.047546
-0.353542 1.13125 0
-0.31571 1.13125 -0.091335
-0.365796 1.05 -0.141421
-0.271921 1.13125 -0.120098
-0.297994 1.05 -0.185958
-0.224375 1.13125 -0.129167
-0.224375 1.05 -0.2
-0.176829 1.13125 -0.120098
-0.150756 1.05 -0.185958
-0.13304 1.13125 -0.091335
-0.082954 1.05 -0.141421
-0.104277 1.13125 -0.047546
-0.038417 1.05 -0.073619
-0.095208 1.13125 0
-0.024375 1.05 0
-0.104277 1.13125 0.047546
-0.038417 1.05 0.073619
-0.13304 1.13125 0.091335
-0.082954 1.05 0.141421
-0.176829 1.13125 0.120098
-0.150756 1.05 0.185958
-0.224375 1.13125 0.129167
-0.224375 1.05 0.2
-0.271921 1.13125 0.120098
-0.297994 1.05 0.185958
-0.31571 1.13125 0.091335
-0.365796 1.05 0.141421
-0.344473 1.13125 0.047546
-0.410333 1.05 0.073619
-0.589714 0.925 0.365339
-0.441326 1.25 0.085889
-0.389367 1.25 0.164992
-0.669899 1.4125 0.176379
-0.563197 1.4125 0.338822
-0.703542 1.4125 0
-0.457708 1.25 0
-0.669899 1.4125 -0.176379
-0.441326 1.25 -0.085889
-0.563197 1.4125 -0.338822
-0.389367 1.25 -0.164992
-0.400754 1.4125 -0.445524
-0.310264 1.25 -0.216951
-0.224375 1.4125 -0.479167
-0.224375 1.25 -0.233333
-0.047996 1.4125 -0.445524
-0.138486 1.25 -0.216951
0.114447 1.4125 -0.338822
-0.059383 1.25 -0.164992
0.221149 1.4125 -0.176379
-0.00742401 1.25 -0.085889
0.254792 1.4125 0
0.008958 1.25 0
0.221149 1.4125 0.176379
-0.00742401 1.25 0.085889
0.114447 1.4125 0.338822
-0.059383 1.25 0.164992
-0.047996 1.4125 0.445524
-0.138486 1.25 0.216951
-0.224375 1.4125 0.479167
-0.224375 1.25 0.233333
-0.400754 1.4125 0.445524
-0.310264 1.25 0.216951
-0.370654 1.475 0.369494
-0.224375 1.475 0.397396
-0.505376 1.475 0.281001
-0.224375 1.5 0
-0.593869 1.475 0.146279
-0.621771 1.475 0
-0.593869 1.475 -0.146279
-0.505376 1.475 -0.281001
-0.370654 1.475 -0.369494
-0.224375 1.475 -0.397396
-0.078096 1.475 -0.369494
0.056626 1.475 -0.281001
0.145119 1.475 -0.146279
0.173021 1.475 0
0.145119 1.475 0.146279
0.056626 1.475 0.281001
-0.078096 1.475 0.369494
-0.414557 0.925 0.480391
-0.224375 0.925 0.516667
-0.224375 0.875 1.15
-0.647684 0.875 1.06926
-0.842616 0.875 0.941215
-1.03755 0.875 0.813173
-0.034193 0.925 0.480391
0.140964 0.925 0.365339
0.588798 0.875 0.813173
0.393866 0.875 0.941215
0.198934 0.875 1.06926
0.256016 0.925 0.190182
0.292292 0.925 0
0.925625 0.875 0
0.844885 0.875 0.423309
0.71684 0.875 0.618241
0.256016 0.925 -0.190182
0.140964 0.925 -0.365339
0.588798 0.875 -0.813173
0.71684 0.875 -0.618241
0.844885 0.875 -0.423309
-0.034193 0.925 -0.480391
-0.224375 0.925 -0.516667
-0.224375 0.875 -1.15
0.198934 0.875 -1.06926
0.393866 0.875 -0.941215
-0.414557 0.925 -0.480391
-0.589714 0.925 -0.365339
-1.03755 0.875 -0.813173
-0.842616 0.875 -0.941215
-0.647684 0.875 -1.06926
-1.16559 0.875 -0.618241
-1.29677 0.825 -0.701112
-1.41567 0.825 -0.471621
-1.16559 0.875 0.618241
-1.23643 0.85938 -1.01205
-1.00757 0.85938 -1.19795
-0.751211 0.85938 -1.33076
-0.48481 0.85938 -1.40736
-0.224375 0.85938 -1.43125
0.03606 0.85938 -1.40736
0.302461 0.85938 -1.33076
0.558819 0.85938 -1.19795
0.787675 0.85938 -1.01205
0.973575 0.85938 -0.783194
1.10638 0.85938 -0.526836
1.18298 0.85938 -0.260435
1.20687 0.85938 0
1.18298 0.85938 0.260435
1.10638 0.85938 0.526836
0.973575 0.85938 0.783194
1.40276 0.225 0.644166
1.24037 0.225 0.957617
1.59645 -0.2875 0.720852
1.41474 -0.2875 1.07162
1.01306 0.225 1.23744
1.16037 -0.2875 1.38475
0.733242 0.225 1.46474
0.847245 -0.2875 1.63912
0.558819 0.85938 1.19795
0.787675 0.85938 1.01205
0.302461 0.85938 1.33076
0.419791 0.225 1.62713
0.03606 0.85938 1.40736
0.09406 0.225 1.72078
0.496477 -0.2875 1.82083
0.131969 -0.2875 1.92564
-0.224375 0.225 1.75
-0.224375 -0.2875 1.95833
-0.54281 0.225 1.72078
-0.580719 -0.2875 1.92564
-0.48481 0.85938 1.40736
-0.224375 0.85938 1.43125
-0.751211 0.85938 1.33076
-0.868541 0.225 1.62713
-1.00757 0.85938 1.19795
-1.18199 0.225 1.46474
-0.945227 -0.2875 1.82083
-1.29599 -0.2875 1.63912
-1.46181 0.225 1.23744
-1.60913 -0.2875 1.38475
-1.68912 0.225 0.957617
-1.86349 -0.2875 1.07162
-1.42233 0.85938 0.783194
-1.23643 0.85938 1.01205
-1.55514 0.85938 0.526836
-1.85151 0.225 0.644166
-1.63173 0.85938 0.260435
-1.94516 0.225 0.318435
-2.04521 -0.2875 0.720852
-2.15001 -0.2875 0.356344
-1.97438 0.225 0
-1.65562 0.85938 0
-1.79584 0.59992 0
-1.83177 0.4916 -0.224862
-1.83376 0.48743 -0.225
-1.83561 0.48361 -0.224885
-1.87124 0.42 -0.184349
-1.87766 0.41006 -0.16875
-1.88293 0.40221 -0.153192
-1.90272 0.37522 -0.019791
-1.80623 0.55601 -0.182704
-1.80359 0.56478 -0.16875
-1.80113 0.57375 -0.150642
-1.79587 0.59959 -0.019798
-2.79868 0.51299 -0.16875
-2.72563 0.44531 -0.225
-3.08036 0.38983 -0.16875
-2.98422 0.34512 -0.225
-3.1725 0.15 -0.16875
-3.06938 0.15 -0.225
-3.1088 -0.1602 -0.16875
-3.01507 -0.11689 -0.225
-2.90786 -0.46216 -0.16875
-2.84124 -0.39609 -0.225
-2.55485 -0.74632 -0.16875
-2.53149 -0.664746 -0.225
-3.15141 -0.17988 0
-2.93812 -0.49219 0
-2.90786 -0.46216 0.16875
-3.1088 -0.1602 0.16875
-3.21937 0.15 0
-3.1725 0.15 0.16875
-3.12406 0.41016 0
-3.08036 0.38983 0.16875
-2.83188 0.54375 0
-2.79868 0.51299 0.16875
-1.80359 0.56478 0.16875
-1.79587 0.59959 0.019798
-1.80344 0.56528 0.167849
-2.72563 0.44531 0.225
-1.83376 0.48743 0.225
-1.83177 0.4916 0.224862
-1.80676 0.55437 0.184995
-2.98422 0.34512 0.225
-3.06938 0.15 0.225
-2.55485 -0.74632 0.16875
-2.56546 -0.783398 0
-2.84124 -0.39609 0.225
-3.01507 -0.11689 0.225
-2.08396 -0.75 -0.736189
-1.89837 -0.75 -1.09442
-2.07427 -0.970313 -0.732355
-1.88964 -0.970312 -1.08872
-1.63858 -0.75 -1.41421
-1.63122 -0.970313 -1.40685
-1.31879 -0.75 -1.67399
-1.31309 -0.970313 -1.66527
-0.960564 -0.75 -1.85958
-0.95673 -0.970313 -1.84989
-0.588301 -0.75 -1.96661
-0.586406 -0.970312 -1.95637
-0.224375 -0.75 -2
-0.224375 -0.970313 -1.98958
0.139551 -0.75 -1.96661
0.137656 -0.970312 -1.95637
0.511814 -0.75 -1.85958
0.50798 -0.970313 -1.84989
0.870045 -0.75 -1.67399
0.864345 -0.970312 -1.66527
1.18983 -0.75 -1.41421
1.18247 -0.970313 -1.40685
1.44962 -0.75 -1.09442
1.44089 -0.970313 -1.08872
1.63521 -0.75 -0.736189
1.62551 -0.970313 -0.732355
1.72308 -0.75 -0.455468
1.72493 -0.765551 -0.447439
1.73924 -0.85858 -0.373486
1.74015 -0.863812 -0.367591
1.74074 -0.867063 -0.363655
1.73199 -0.970312 -0.362031
1.55771 -1.1625 -0.705515
1.6603 -1.1625 -0.348763
1.24778 -1.40625 -0.582817
1.33253 -1.40625 -0.288108
1.00565 -1.47422 -0.486959
1.07645 -1.47422 -0.240722
1.10087 -1.40625 -0.866415
0.882905 -1.47422 -0.723913
0.895215 -1.40625 -1.11959
0.711068 -1.47422 -0.935443
0.64204 -1.40625 -1.32524
0.499538 -1.47422 -1.10728
0.358442 -1.40625 -1.47216
0.262584 -1.47422 -1.23003
0.063733 -1.40625 -1.5569
0.016347 -1.47422 -1.30083
-0.224375 -1.40625 -1.58333
-0.224375 -1.47422 -1.32292
-0.512483 -1.40625 -1.5569
-0.465097 -1.47422 -1.30083
-0.807192 -1.40625 -1.47216
-0.711334 -1.47422 -1.23003
-1.09079 -1.40625 -1.32524
-0.948288 -1.47422 -1.10728
-1.34397 -1.40625 -1.11959
-1.15982 -1.47422 -0.935443
-1.54962 -1.40625 -0.866415
-1.33166 -1.47422 -0.723913
-1.69653 -1.40625 -0.582817
-1.4544 -1.47422 -0.486959
-1.78128 -1.40625 -0.288108
-1.52521 -1.47422 -0.240722
-1.80771 -1.40625 0
-1.54729 -1.47422 0
-1.78128 -1.40625 0.288108
-1.52521 -1.47422 0.240722
-1.69653 -1.40625 0.582817
-1.4544 -1.47422 0.486959
-1.54962 -1.40625 0.866415
-1.33166 -1.47422 0.723913
-1.34397 -1.40625 1.11959
-1.15982 -1.47422 0.935443
-1.09079 -1.40625 1.32524
-0.948288 -1.47422 1.10728
-0.807192 -1.40625 1.47216
-0.711334 -1.47422 1.23003
-0.512483 -1.40625 1.5569
-0.465097 -1.47422 1.30083
-0.224375 -1.40625 1.58333
-0.224375 -1.47422 1.32292
0.063733 -1.40625 1.5569
0.016347 -1.47422 1.30083
0.358442 -1.40625 1.47216
0.262584 -1.47422 1.23003
0.64204 -1.40625 1.32524
0.499538 -1.47422 1.10728
0.895215 -1.40625 1.11959
0.711068 -1.47422 0.935443
1.10087 -1.40625 0.866415
0.882905 -1.47422 0.723913
1.24778 -1.40625 0.582817
1.00565 -1.47422 0.486959
1.33253 -1.40625 0.288108
1.07645 -1.47422 0.240722
1.35896 -1.40625 0
1.09854 -1.47422 0
-0.224375 -1.5 0
1.37986 -1.1625 -1.04882
1.13092 -1.1625 -1.35529
0.824445 -1.1625 -1.60424
0.48114 -1.1625 -1.78209
0.124388 -1.1625 -1.88467
-0.224375 -1.1625 -1.91667
-0.573138 -1.1625 -1.88467
-0.92989 -1.1625 -1.78209
-1.2732 -1.1625 -1.60424
-1.57967 -1.1625 -1.35529
-1.82861 -1.1625 -1.04882
-2.00646 -1.1625 -0.705515
1.70911 -0.32309 -0.360779
1.70908 -0.32064 -0.357797
1.70915 -0.32764 -0.365961
1.7093 -0.34127 -0.380472
1.71279 -0.588203 -0.489652
1.71307 -0.597525 -0.489818
1.71374 -0.617488 -0.489345
1.72211 -0.741175 -0.459586
1.70888 -0.2986 -0.329403
1.70898 -0.31046 -0.345388
1.74244 -0.876501 -0.352226
1.7553 -0.943764 -0.230166
1.69229 -1.1625 0
1.6603 -1.1625 0.348763
1.71334 -0.605936 0.489757
1.72211 -0.741175 0.459586
1.55771 -1.1625 0.705515
1.37986 -1.1625 1.04882
1.13092 -1.1625 1.35529
0.824445 -1.1625 1.60424
0.48114 -1.1625 1.78209
0.124388 -1.1625 1.88467
-0.224375 -1.1625 1.91667
-0.573138 -1.1625 1.88467
-0.92989 -1.1625 1.78209
-1.2732 -1.1625 1.60424
-1.57967 -1.1625 1.35529
-1.82861 -1.1625 1.04882
-2.00646 -1.1625 0.705515
-2.10905 -1.1625 0.348763
-2.53149 -0.664746 0.225
-2.14105 -1.1625 0
-2.10905 -1.1625 -0.348763
-2.77465 -0.33003 -0.16875
-2.92136 -0.07359 -0.16875
-2.96624 0.15 -0.16875
-2.88808 0.3004 -0.16875
-2.65258 0.37764 -0.16875
-1.84257 0.46981 0.222529
-1.87126 0.41997 0.184304
-0.00789892 0.1799 0.00375006
0.000936739 -0.719966 0.0125857
0.720949 4.60191e-05 -0.176104
3 0 2 1
3 0 4 3
3 0 3 5
3 0 5 2
3 6 1 7
3 1 6 0
3 8 7 9
3 7 8 6
3 10 9 11
3 12 9 10
3 9 12 8
3 13 11 14
3 11 13 10
3 15 14 16
3 14 15 13
3 17 19 18
3 15 19 17
3 15 20 19
3 20 15 16
3 21 17 22
3 21 15 17
3 23 15 21
3 24 15 23
3 25 17 26
3 27 22 25
3 27 21 22
3 27 23 21
3 23 27 28
3 25 22 17
3 27 29 28
3 30 29 27
3 30 31 29
3 30 32 31
3 30 33 32
3 30 34 33
3 30 35 34
3 30 36 35
3 30 37 36
3 30 38 37
3 39 38 30
3 40 42 41
3 41 43 40
3 44 43 41
3 45 43 44
3 46 43 45
3 47 43 46
3 48 43 47
3 49 43 48
3 50 43 49
3 38 43 50
3 43 38 39
3 40 52 51
3 52 40 43
3 51 54 53
3 54 51 52
3 53 56 55
3 56 53 54
3 55 58 57
3 58 55 56
3 57 60 59
3 60 57 58
3 59 62 61
3 62 59 60
3 61 64 63
3 64 61 62
3 63 66 65
3 66 63 64
3 65 68 67
3 68 65 66
3 67 70 69
3 70 67 68
3 69 72 71
3 72 69 70
3 71 74 73
3 74 71 72
3 73 76 75
3 76 73 74
3 75 78 77
3 76 78 75
3 76 79 78
3 76 80 79
3 76 81 80
3 82 81 76
3 82 83 81
3 82 84 83
3 82 85 84
3 82 86 85
3 82 87 86
3 88 87 82
3 89 91 90
3 89 85 86
3 89 86 87
3 89 87 88
3 89 88 92
3 89 92 93
3 89 93 91
3 90 95 94
3 90 91 96
3 90 96 97
3 90 97 98
3 90 98 99
3 90 99 100
3 90 100 95
3 101 103 102
3 101 90 94
3 101 94 103
3 102 105 104
3 105 102 103
3 104 107 106
3 107 104 105
3 106 109 108
3 106 107 110
3 106 110 109
3 108 112 111
3 108 109 113
3 108 113 112
3 111 115 114
3 115 111 112
3 114 117 116
3 117 114 115
3 118 116 119
3 118 114 116
3 119 101 120
3 119 116 101
3 121 120 122
3 120 121 119
3 122 124 123
3 124 122 120
3 123 126 125
3 126 123 124
3 125 128 127
3 128 125 126
3 129 127 130
3 127 129 125
3 131 130 132
3 131 129 130
3 133 129 131
3 133 134 129
3 135 131 136
3 131 135 133
3 137 136 138
3 135 136 137
3 138 140 139
3 140 138 136
3 141 139 142
3 139 141 138
3 143 142 144
3 142 143 141
3 145 143 144
3 146 143 145
3 145 147 146
3 148 147 145
3 148 149 147
3 150 149 148
3 150 151 149
3 152 151 150
3 152 153 151
3 154 153 152
3 154 155 153
3 155 154 156
3 157 156 154
3 156 157 158
3 159 158 157
3 158 159 160
3 161 157 162
3 159 157 161
3 163 162 164
3 161 162 163
3 165 164 166
3 163 164 165
3 165 166 145
3 145 167 165
3 168 161 163
3 161 168 169
3 160 170 158
3 160 171 170
3 171 172 170
3 173 172 171
3 173 118 172
3 118 173 174
3 175 160 159
3 176 160 175
3 160 176 171
3 156 177 155
3 156 178 177
3 158 178 156
3 158 170 178
3 164 152 150
3 152 164 162
3 162 154 152
3 154 162 157
3 145 166 148
3 166 150 148
3 150 166 164
3 167 163 165
3 163 167 168
3 144 167 145
3 146 141 143
3 179 141 146
3 144 168 167
3 142 168 144
3 147 179 146
3 179 147 149
3 142 169 168
3 139 169 142
3 139 175 169
3 140 175 139
3 179 138 141
3 137 138 179
3 149 137 179
3 137 149 151
3 151 135 137
3 135 151 153
3 169 159 161
3 159 169 175
3 153 133 135
3 133 153 155
3 155 134 133
3 155 177 134
3 140 176 175
3 132 176 140
3 130 176 132
3 136 132 140
3 132 136 131
3 130 180 176
3 127 180 130
3 134 125 129
3 123 125 134
3 177 123 134
3 123 177 122
3 178 122 177
3 121 122 178
3 170 121 178
3 121 170 172
3 176 173 171
3 173 176 180
3 172 119 121
3 119 172 118
3 174 114 118
3 174 111 114
3 112 181 115
3 182 181 112
3 183 181 182
3 181 183 184
3 180 174 173
3 108 174 180
3 174 108 111
3 113 182 112
3 113 186 185
3 113 185 187
3 113 187 188
3 113 188 189
3 113 189 190
3 113 190 191
3 113 191 192
3 113 192 182
3 193 195 194
3 196 186 193
3 196 185 186
3 196 187 185
3 187 196 188
3 193 186 197
3 193 197 198
3 193 198 195
3 194 200 199
3 194 195 201
3 194 201 202
3 194 202 203
3 203 200 194
3 204 200 203
3 205 200 204
3 200 205 206
3 199 208 207
3 208 199 200
3 207 210 209
3 210 207 208
3 209 212 211
3 212 209 210
3 211 214 213
3 214 211 212
3 213 216 215
3 216 213 214
3 215 218 217
3 218 215 216
3 217 220 219
3 220 217 218
3 219 222 221
3 222 219 220
3 221 224 223
3 224 221 222
3 223 226 225
3 226 223 224
3 225 228 227
3 228 225 226
3 227 230 229
3 230 227 228
3 229 232 231
3 232 229 230
3 231 25 233
3 25 231 232
3 234 233 235
3 233 234 231
3 236 235 237
3 236 234 235
3 238 234 236
3 238 239 234
3 240 236 241
3 236 240 238
3 242 241 243
3 242 240 241
3 243 245 244
3 243 241 246
3 243 246 245
3 246 247 245
3 247 246 237
3 245 249 248
3 249 245 247
3 248 251 250
3 251 248 249
3 250 253 252
3 253 250 251
3 252 255 254
3 255 252 253
3 254 257 256
3 257 254 255
3 256 259 258
3 259 256 257
3 258 261 260
3 261 258 259
3 260 263 262
3 263 260 261
3 262 265 264
3 265 262 263
3 264 267 266
3 267 264 265
3 266 269 268
3 269 266 267
3 268 271 270
3 271 268 269
3 270 273 272
3 273 270 271
3 272 275 274
3 275 272 273
3 274 277 276
3 277 274 275
3 276 279 278
3 279 276 277
3 278 281 280
3 281 278 279
3 280 283 282
3 283 280 281
3 282 285 284
3 285 282 283
3 284 287 286
3 287 284 285
3 286 289 288
3 289 286 287
3 288 291 290
3 291 288 289
3 290 293 292
3 293 290 291
3 292 295 294
3 295 292 293
3 294 297 296
3 297 294 295
3 296 299 298
3 299 296 297
3 298 301 300
3 301 298 299
3 300 303 302
3 303 300 301
3 304 302 305
3 304 300 302
3 306 305 307
3 306 304 305
3 308 304 306
3 308 309 304
3 310 309 308
3 310 311 309
3 312 311 310
3 312 313 311
3 314 313 312
3 314 315 313
3 316 315 314
3 316 317 315
3 318 317 316
3 318 319 317
3 320 319 318
3 320 321 319
3 322 321 320
3 322 323 321
3 324 323 322
3 324 325 323
3 326 325 324
3 326 327 325
3 328 327 326
3 328 329 327
3 330 329 328
3 330 331 329
3 332 331 330
3 332 333 331
3 334 333 332
3 334 335 333
3 336 335 334
3 336 337 335
3 338 337 336
3 338 339 337
3 340 339 338
3 340 341 339
3 342 341 340
3 342 343 341
3 344 343 342
3 344 345 343
3 346 345 344
3 346 244 345
3 347 344 348
3 344 347 346
3 349 348 350
3 349 347 348
3 351 347 349
3 351 352 347
3 353 349 354
3 349 353 351
3 355 354 356
3 355 353 354
3 357 353 355
3 357 358 353
3 359 358 357
3 359 360 358
3 361 360 359
3 361 362 360
3 363 362 361
3 363 364 362
3 365 364 363
3 365 366 364
3 367 366 365
3 367 368 366
3 369 368 367
3 369 370 368
3 371 370 369
3 371 372 370
3 373 372 371
3 373 374 372
3 375 374 373
3 375 376 374
3 377 376 375
3 377 378 376
3 379 378 377
3 379 380 378
3 381 380 379
3 381 382 380
3 383 382 381
3 383 384 382
3 384 385 382
3 385 384 350
3 386 381 387
3 381 386 383
3 388 387 389
3 388 386 387
3 390 386 388
3 390 391 386
3 392 391 390
3 392 393 391
3 394 393 392
3 394 395 393
3 396 395 394
3 396 397 395
3 398 397 396
3 398 399 397
3 400 399 398
3 400 401 399
3 402 401 400
3 402 403 401
3 404 403 402
3 404 405 403
3 406 405 404
3 406 407 405
3 408 407 406
3 408 409 407
3 410 409 408
3 410 411 409
3 412 411 410
3 412 413 411
3 414 413 412
3 414 415 413
3 416 415 414
3 416 417 415
3 418 414 419
3 418 416 414
3 420 416 418
3 420 389 416
3 418 421 420
3 420 421 422
3 422 421 423
3 423 421 424
3 424 421 425
3 425 421 426
3 426 421 427
3 427 421 428
3 428 421 429
3 429 421 430
3 430 421 431
3 431 421 432
3 432 421 433
3 433 421 434
3 434 421 419
3 419 421 418
3 419 412 434
3 419 414 412
3 434 410 433
3 434 412 410
3 433 408 432
3 433 410 408
3 432 406 431
3 432 408 406
3 431 404 430
3 431 406 404
3 430 402 429
3 430 404 402
3 429 400 428
3 429 402 400
3 428 398 427
3 428 400 398
3 427 396 426
3 427 398 396
3 426 394 425
3 426 396 394
3 425 392 424
3 425 394 392
3 424 390 423
3 424 392 390
3 423 388 422
3 423 390 388
3 389 417 416
3 389 387 417
3 422 389 420
3 422 388 389
3 391 383 386
3 383 391 356
3 382 435 380
3 435 382 385
3 387 379 417
3 379 387 381
3 380 436 378
3 436 380 435
3 417 377 415
3 377 417 379
3 435 437 436
3 435 438 437
3 385 438 435
3 385 440 439
3 385 439 438
3 378 441 376
3 441 378 436
3 415 375 413
3 375 415 377
3 376 442 374
3 442 376 441
3 413 373 411
3 373 413 375
3 441 443 442
3 441 445 444
3 441 444 443
3 436 445 441
3 436 437 445
3 374 446 372
3 446 374 442
3 411 371 409
3 371 411 373
3 372 447 370
3 447 372 446
3 409 369 407
3 369 409 371
3 446 448 447
3 446 449 448
3 442 449 446
3 442 443 450
3 442 450 449
3 370 451 368
3 451 370 447
3 407 367 405
3 367 407 369
3 368 452 366
3 452 368 451
3 405 365 403
3 365 405 367
3 451 453 452
3 451 455 454
3 451 454 453
3 447 455 451
3 447 448 455
3 366 456 364
3 456 366 452
3 403 363 401
3 363 403 365
3 364 457 362
3 457 364 456
3 401 361 399
3 361 401 363
3 456 458 457
3 456 459 458
3 452 459 456
3 452 453 460
3 452 460 459
3 362 461 360
3 461 362 457
3 399 359 397
3 359 399 361
3 360 462 358
3 462 360 461
3 397 357 395
3 357 397 359
3 461 463 462
3 461 465 464
3 461 464 463
3 457 465 461
3 457 458 465
3 395 355 393
3 355 395 357
3 356 384 383
3 356 354 384
3 393 356 391
3 356 393 355
3 358 351 353
3 351 358 462
3 462 352 351
3 462 463 466
3 462 466 352
3 463 467 466
3 467 463 307
3 466 468 352
3 468 466 467
3 350 440 385
3 350 348 469
3 350 469 440
3 354 350 384
3 350 354 349
3 352 346 347
3 346 352 468
3 348 342 469
3 342 348 344
3 469 340 440
3 340 469 342
3 440 338 439
3 338 440 340
3 439 336 438
3 336 439 338
3 438 334 437
3 334 438 336
3 437 332 445
3 332 437 334
3 445 330 444
3 330 445 332
3 444 328 443
3 328 444 330
3 443 326 450
3 326 443 328
3 450 324 449
3 324 450 326
3 449 322 448
3 322 449 324
3 448 320 455
3 320 448 322
3 455 318 454
3 318 455 320
3 454 316 453
3 316 454 318
3 453 314 460
3 314 453 316
3 460 312 459
3 312 460 314
3 459 310 458
3 310 459 312
3 458 308 465
3 308 458 310
3 465 306 464
3 306 465 308
3 307 242 467
3 307 305 242
3 464 307 463
3 307 464 306
3 301 470 303
3 301 471 470
3 309 300 304
3 309 298 300
3 299 471 301
3 299 472 471
3 297 472 299
3 297 473 472
3 311 298 309
3 311 294 296
3 311 296 298
3 293 474 295
3 293 475 474
3 313 294 311
3 313 290 292
3 313 292 294
3 291 475 293
3 291 476 475
3 315 290 313
3 315 288 290
3 289 476 291
3 289 477 476
3 317 288 315
3 317 286 288
3 287 477 289
3 287 478 477
3 319 286 317
3 319 284 286
3 285 478 287
3 285 479 478
3 321 284 319
3 321 282 284
3 283 479 285
3 283 480 479
3 281 480 283
3 281 481 480
3 323 282 321
3 323 278 280
3 323 280 282
3 279 481 281
3 279 482 481
3 277 482 279
3 277 483 482
3 325 278 323
3 325 274 276
3 325 276 278
3 275 483 277
3 275 484 483
3 327 274 325
3 327 272 274
3 273 484 275
3 273 485 484
3 485 486 484
3 487 486 485
3 487 488 486
3 488 487 489
3 490 489 487
3 489 490 491
3 492 491 490
3 491 492 493
3 494 490 495
3 492 490 494
3 496 492 494
3 492 496 497
3 498 497 496
3 499 497 498
3 499 500 497
3 500 499 501
3 502 501 499
3 501 502 503
3 504 503 502
3 503 504 505
3 506 502 507
3 504 502 506
3 508 504 506
3 504 508 509
3 510 509 508
3 511 509 510
3 511 512 509
3 512 511 513
3 514 513 511
3 513 514 515
3 516 515 514
3 515 516 517
3 518 514 519
3 516 514 518
3 520 516 518
3 516 520 521
3 522 521 520
3 523 521 522
3 523 524 521
3 524 523 525
3 526 525 523
3 525 526 26
3 521 517 516
3 517 521 524
3 519 511 510
3 511 519 514
3 509 505 504
3 505 509 512
3 507 499 498
3 499 507 502
3 497 493 492
3 493 497 500
3 495 487 485
3 487 495 490
3 329 272 327
3 329 270 272
3 271 485 273
3 271 495 485
3 331 270 329
3 331 268 270
3 269 495 271
3 269 494 495
3 333 268 331
3 333 266 268
3 267 494 269
3 267 496 494
3 265 496 267
3 265 498 496
3 335 266 333
3 335 262 264
3 335 264 266
3 263 498 265
3 263 507 498
3 261 507 263
3 261 506 507
3 337 262 335
3 337 258 260
3 337 260 262
3 259 506 261
3 259 508 506
3 339 258 337
3 339 256 258
3 257 508 259
3 257 510 508
3 341 256 339
3 341 254 256
3 255 510 257
3 255 519 510
3 343 254 341
3 343 252 254
3 253 519 255
3 253 518 519
3 345 252 343
3 345 250 252
3 251 518 253
3 251 520 518
3 249 520 251
3 249 522 520
3 244 250 345
3 244 245 248
3 244 248 250
3 247 522 249
3 247 527 522
3 468 244 346
3 468 243 244
3 467 243 468
3 467 242 243
3 305 240 242
3 305 302 240
3 302 238 240
3 238 302 303
3 237 527 247
3 237 235 527
3 241 237 246
3 237 241 236
3 303 239 238
3 303 470 239
3 295 473 297
3 295 474 473
3 235 528 527
3 233 529 235
3 233 530 529
3 233 531 530
3 233 532 531
3 233 533 532
3 233 534 533
3 233 535 534
3 233 4 535
3 4 233 526
3 235 529 536
3 235 536 537
3 235 537 538
3 235 538 539
3 235 539 528
3 537 541 540
3 537 530 541
3 537 529 530
3 537 536 529
3 542 541 543
3 540 541 542
3 542 545 544
3 542 543 545
3 546 545 547
3 544 545 546
3 546 549 548
3 546 547 549
3 550 549 551
3 548 549 550
3 552 548 553
3 548 552 546
3 554 552 553
3 555 552 554
3 555 556 552
3 557 556 555
3 557 558 556
3 559 558 557
3 559 560 558
3 561 560 559
3 561 528 560
3 562 528 561
3 562 563 528
3 562 564 563
3 565 562 561
3 566 562 565
3 567 562 566
3 562 567 568
3 569 557 570
3 557 569 559
3 569 561 559
3 561 569 565
3 571 553 572
3 554 553 571
3 573 555 554
3 555 573 574
3 574 557 555
3 557 574 570
3 556 542 544
3 542 556 558
3 239 231 234
3 229 231 239
3 230 575 232
3 230 576 575
3 576 577 575
3 577 576 578
3 579 578 576
3 578 579 580
3 581 580 579
3 580 581 582
3 583 582 581
3 582 583 584
3 585 584 583
3 584 585 586
3 587 586 585
3 586 587 588
3 589 588 587
3 588 589 590
3 591 590 589
3 590 591 592
3 593 592 591
3 592 593 594
3 595 594 593
3 594 595 596
3 597 596 595
3 596 597 598
3 599 598 597
3 598 599 600
3 601 600 599
3 602 600 601
3 603 600 602
3 604 600 603
3 605 600 604
3 600 605 606
3 606 607 600
3 606 608 607
3 608 609 607
3 608 610 609
3 610 611 609
3 611 610 612
3 609 614 613
3 614 609 611
3 613 616 615
3 616 613 614
3 615 618 617
3 618 615 616
3 617 620 619
3 620 617 618
3 619 622 621
3 622 619 620
3 621 624 623
3 624 621 622
3 623 626 625
3 626 623 624
3 625 628 627
3 628 625 626
3 627 630 629
3 630 627 628
3 629 632 631
3 632 629 630
3 631 634 633
3 634 631 632
3 633 636 635
3 636 633 634
3 635 638 637
3 638 635 636
3 637 640 639
3 640 637 638
3 639 642 641
3 642 639 640
3 641 644 643
3 644 641 642
3 643 646 645
3 646 643 644
3 645 648 647
3 648 645 646
3 647 650 649
3 650 647 648
3 649 652 651
3 652 649 650
3 651 654 653
3 654 651 652
3 653 656 655
3 656 653 654
3 655 658 657
3 658 655 656
3 657 660 659
3 660 657 658
3 659 662 661
3 662 659 660
3 661 664 663
3 664 661 662
3 663 666 665
3 666 663 664
3 665 668 667
3 668 665 666
3 667 670 669
3 670 667 668
3 669 672 671
3 672 669 670
3 670 673 672
3 666 673 668
3 662 673 664
3 658 673 660
3 654 673 656
3 650 673 652
3 646 673 648
3 642 673 644
3 638 673 640
3 634 673 636
3 630 673 632
3 626 673 628
3 622 673 624
3 618 673 620
3 614 673 616
3 671 612 610
3 612 671 672
3 612 673 611
3 600 674 598
3 600 607 674
3 598 675 596
3 598 674 675
3 674 615 675
3 674 613 615
3 607 613 674
3 607 609 613
3 611 673 614
3 596 676 594
3 596 675 676
3 594 677 592
3 594 676 677
3 676 619 677
3 676 617 619
3 675 617 676
3 675 615 617
3 592 678 590
3 592 677 678
3 590 679 588
3 590 678 679
3 678 623 679
3 678 621 623
3 677 621 678
3 677 619 621
3 620 673 622
3 588 680 586
3 588 679 680
3 586 681 584
3 586 680 681
3 680 627 681
3 680 625 627
3 679 625 680
3 679 623 625
3 584 682 582
3 584 681 682
3 582 683 580
3 582 682 683
3 682 631 683
3 682 629 631
3 681 629 682
3 681 627 629
3 628 673 630
3 580 684 578
3 580 683 684
3 578 685 577
3 578 684 685
3 684 635 685
3 684 633 635
3 683 633 684
3 683 631 633
3 470 229 239
3 229 470 227
3 471 227 470
3 225 227 471
3 226 579 228
3 226 581 579
3 472 225 471
3 225 472 223
3 224 581 226
3 224 583 581
3 473 223 472
3 221 223 473
3 222 583 224
3 222 585 583
3 474 221 473
3 221 474 219
3 220 585 222
3 220 587 585
3 475 219 474
3 217 219 475
3 218 587 220
3 218 589 587
3 476 217 475
3 217 476 215
3 216 589 218
3 216 591 589
3 477 215 476
3 213 215 477
3 214 591 216
3 214 593 591
3 478 213 477
3 213 478 211
3 212 593 214
3 212 595 593
3 616 673 618
3 479 211 478
3 209 211 479
3 210 595 212
3 210 597 595
3 480 209 479
3 209 480 207
3 208 597 210
3 208 599 597
3 481 207 480
3 199 207 481
3 200 599 208
3 200 687 686
3 200 686 688
3 200 688 689
3 689 599 200
3 690 599 689
3 691 599 690
3 692 599 691
3 693 599 692
3 599 693 601
3 482 199 481
3 199 482 194
3 200 206 694
3 200 694 695
3 200 695 687
3 483 194 482
3 193 194 483
3 484 193 483
3 193 484 486
3 486 196 193
3 196 486 488
3 196 189 188
3 196 191 190
3 196 190 189
3 127 108 180
3 128 108 127
3 106 108 128
3 110 195 109
3 110 203 202
3 110 202 201
3 110 201 195
3 107 203 110
3 107 688 686
3 107 686 687
3 107 687 695
3 107 695 694
3 107 694 206
3 107 206 205
3 107 205 204
3 107 204 203
3 126 106 128
3 126 104 106
3 105 688 107
3 691 688 105
3 691 689 688
3 689 691 690
3 124 104 126
3 124 102 104
3 103 691 105
3 604 691 103
3 604 692 691
3 604 693 692
3 603 693 604
3 602 693 603
3 693 602 601
3 120 102 124
3 120 101 102
3 696 606 605
3 697 606 696
3 95 606 697
3 100 606 95
3 99 606 100
3 606 99 98
3 98 608 606
3 97 608 98
3 96 608 97
3 91 608 96
3 608 91 698
3 698 610 608
3 698 671 610
3 672 673 612
3 94 604 103
3 94 95 697
3 94 697 696
3 94 696 605
3 94 605 604
3 116 90 101
3 116 117 89
3 116 89 90
3 82 92 88
3 699 92 82
3 699 93 92
3 699 91 93
3 91 699 698
3 699 671 698
3 699 669 671
3 117 85 89
3 117 80 81
3 117 81 83
3 117 83 84
3 117 84 85
3 115 80 117
3 181 80 115
3 700 80 181
3 701 80 700
3 701 79 80
3 701 78 79
3 78 701 77
3 109 186 113
3 109 195 198
3 109 198 197
3 109 197 186
3 488 191 196
3 75 183 488
3 75 184 183
3 75 181 184
3 75 700 181
3 75 701 700
3 701 75 77
3 488 183 182
3 488 182 192
3 488 192 191
3 76 699 82
3 76 702 699
3 702 669 699
3 702 667 669
3 668 673 670
3 489 75 488
3 489 73 75
3 74 702 76
3 74 703 702
3 703 667 702
3 703 665 667
3 491 73 489
3 491 71 73
3 72 703 74
3 72 704 703
3 704 665 703
3 704 663 665
3 664 673 666
3 493 71 491
3 493 69 71
3 70 704 72
3 70 705 704
3 705 663 704
3 705 661 663
3 500 69 493
3 500 67 69
3 68 705 70
3 68 706 705
3 706 661 705
3 706 659 661
3 660 673 662
3 501 67 500
3 501 65 67
3 66 706 68
3 66 707 706
3 707 659 706
3 707 657 659
3 503 65 501
3 503 63 65
3 64 707 66
3 64 708 707
3 708 657 707
3 708 655 657
3 505 63 503
3 505 61 63
3 62 708 64
3 62 709 708
3 709 655 708
3 709 653 655
3 512 61 505
3 512 59 61
3 60 709 62
3 60 710 709
3 710 653 709
3 710 651 653
3 652 673 654
3 513 59 512
3 513 57 59
3 58 710 60
3 58 711 710
3 711 651 710
3 711 649 651
3 515 57 513
3 515 55 57
3 56 711 58
3 56 712 711
3 712 649 711
3 712 647 649
3 648 673 650
3 517 55 515
3 517 53 55
3 54 712 56
3 54 713 712
3 713 647 712
3 713 645 647
3 524 53 517
3 524 51 53
3 52 713 54
3 52 714 713
3 714 645 713
3 714 643 645
3 644 673 646
3 525 51 524
3 525 40 51
3 43 714 52
3 43 715 714
3 715 643 714
3 715 641 643
3 571 49 48
3 571 50 49
3 571 38 50
3 571 572 38
3 716 46 45
3 716 47 46
3 716 48 47
3 48 716 571
3 716 554 571
3 554 716 573
3 39 715 43
3 39 717 715
3 717 641 715
3 717 639 641
3 33 551 32
3 34 551 33
3 35 551 34
3 550 551 35
3 36 550 35
3 37 550 36
3 38 550 37
3 550 38 572
3 575 30 27
3 30 575 577
3 577 718 30
3 577 685 718
3 30 717 39
3 30 718 717
3 718 639 717
3 718 637 639
3 685 637 718
3 685 635 637
3 636 673 638
3 233 26 526
3 26 233 25
3 232 27 25
3 232 575 27
3 228 576 230
3 228 579 576
3 632 673 634
3 28 24 23
3 29 24 28
3 31 24 29
3 32 24 31
3 24 32 551
3 16 42 20
3 16 41 42
3 16 44 41
3 16 45 44
3 16 716 45
3 719 15 24
3 719 13 15
3 549 24 551
3 24 549 719
3 572 548 550
3 548 572 553
3 16 573 716
3 14 573 16
3 720 13 719
3 720 10 13
3 547 719 549
3 719 547 720
3 14 574 573
3 11 574 14
3 721 10 720
3 721 12 10
3 721 8 12
3 545 720 547
3 720 545 721
3 552 544 546
3 544 552 556
3 11 570 574
3 9 570 11
3 721 6 8
3 722 6 721
3 543 721 545
3 721 543 722
3 7 570 9
3 7 569 570
3 723 6 722
3 723 0 6
3 541 722 543
3 722 541 723
3 558 540 542
3 540 558 560
3 7 565 569
3 1 565 7
3 533 0 723
3 0 533 534
3 0 534 535
3 0 535 4
3 530 723 541
3 530 533 723
3 530 532 533
3 532 530 531
3 528 540 560
3 528 537 540
3 539 537 528
3 537 539 538
3 527 567 522
3 527 528 563
3 527 563 564
3 527 564 562
3 527 562 568
3 527 568 567
3 567 523 522
3 566 523 567
3 724 523 566
3 725 523 724
3 2 523 725
3 5 523 2
3 3 523 5
3 4 523 3
3 523 4 526
3 26 40 525
3 26 17 18
3 18 40 26
3 19 40 18
3 20 40 19
3 40 20 42
3 640 673 642
3 624 673 626
3 656 673 658
3 1 566 565
3 2 566 1
3 725 566 2
3 566 725 724
3 726 727 728
